# xmcd CD database file
#
# Track frame offsets:
#	150
#	12060
#	26475
#	36820
#	47898
#	60723
#	75905
#
# Disc length: 1167 seconds
#
# Revision: 0
# Processed by: cddbd v1.5PL3 Copyright (c) Steve Scherf et al.
# Submitted via: CDex 1.50beta9
#
DISCID=47048d07
DTITLE=BENCH WARMER - BENCH WARMER
DYEAR=1998
DGENRE=New Age
TTITLE0=GO WELL
TTITLE1=NOW AND FOREVER
TTITLE2=LOOKING FOR...
TTITLE3=NOTHING IS BETTER THAN WHAT YOU SING
TTITLE4=INCOMPLETE
TTITLE5=A GOOD TIME
TTITLE6=I WILL GO
EXTD=YEAR: 1998
EXTT0=
EXTT1=
EXTT2=
EXTT3=
EXTT4=
EXTT5=
EXTT6=
PLAYORDER=
